<?xml version="1.0" standalone="no"?>
<!DOCTYPE svg PUBLIC "-//W3C//DTD SVG 20010904//EN"
 "http://www.w3.org/TR/2001/REC-SVG-20010904/DTD/svg10.dtd">
<svg version="1.0" xmlns="http://www.w3.org/2000/svg"
 width="794.000000pt" height="1123.000000pt" viewBox="0 0 794.000000 1123.000000"
 preserveAspectRatio="xMidYMid meet">

<g transform="translate(0.000000,1123.000000) scale(0.100000,-0.100000)"
fill="#000000" stroke="none">
<path d="M2212 9591 c2 -5 131 -163 288 -350 l285 -340 1538 -1 1537 0 0 -260
0 -260 140 0 140 0 0 -970 0 -970 -25 -6 c-36 -9 -92 -76 -106 -126 -19 -72
-6 -140 41 -214 12 -19 -16 -64 -340 -557 l-353 -537 -443 0 c-434 0 -444 0
-454 -20 -12 -22 -7 -1451 5 -1483 4 -9 21 -19 38 -22 18 -3 783 -4 1700 -3
1655 3 1669 3 1683 23 13 17 14 118 9 750 -4 402 -8 736 -10 743 -4 9 -103 12
-453 12 l-449 0 -331 551 -330 551 19 42 c51 113 -3 266 -105 292 l-26 6 0
969 0 969 120 0 120 0 0 359 0 358 -237 252 -237 251 -1884 0 c-1142 0 -1882
-4 -1880 -9z m4392 -4047 c168 -282 309 -519 312 -528 6 -15 -60 -16 -745 -16
-413 0 -751 3 -751 6 0 4 154 240 342 526 l341 519 56 -6 c35 -3 69 0 91 8 19
7 38 11 41 8 3 -3 144 -236 313 -517z m-1324 -1314 l0 -130 -220 0 -220 0 0
123 c0 68 3 127 7 130 3 4 102 7 220 7 l213 0 0 -130z m810 0 l0 -130 -225 0
-225 0 0 130 0 130 225 0 225 0 0 -130z m748 -2 l3 -128 -196 0 -195 0 0 130
0 130 193 -2 192 -3 3 -127z m700 0 l3 -128 -191 0 -190 0 0 130 0 130 188 -2
187 -3 3 -127z"/>
<path d="M2110 7262 l0 -2162 290 0 290 0 0 1818 0 1819 -276 329 c-152 181
-282 336 -290 344 -12 12 -14 -288 -14 -2148z"/>
<path d="M528 6780 c-158 -27 -311 -203 -353 -405 -22 -105 -21 -688 1 -788
36 -162 141 -312 261 -373 l58 -29 580 0 580 0 58 29 c120 61 225 211 261 373
22 100 23 683 1 788 -35 166 -144 317 -272 378 l-68 32 -530 2 c-291 0 -551
-3 -577 -7z m937 -830 l0 -235 -392 -3 -393 -2 0 240 0 240 393 -2 392 -3 0
-235z"/>
<path d="M1690 4525 l0 -355 705 0 705 0 -2 353 -3 352 -702 3 -703 2 0 -355z"/>
<path d="M2020 3815 l0 -125 -356 0 c-352 0 -394 -4 -394 -34 0 -7 -66 -199
-147 -427 l-147 -414 -4 -149 c-2 -81 0 -152 5 -157 5 -5 91 -12 192 -16 152
-5 184 -4 192 8 5 8 9 66 9 129 l0 116 105 299 c58 165 110 312 116 328 l11
27 798 0 798 0 11 -32 c5 -18 51 -160 100 -315 l91 -282 0 -143 c0 -79 4 -149
9 -156 6 -11 43 -12 187 -5 l179 8 -1 180 0 180 -136 418 c-75 230 -139 421
-143 425 -4 4 -175 8 -381 10 l-374 3 0 124 0 125 -360 0 -360 0 0 -125z"/>
<path d="M4764 1679 l-199 -231 -3 226 -2 226 -35 0 -35 0 0 -425 0 -425 35 0
35 0 0 140 0 139 66 76 c36 41 68 75 72 75 4 0 72 -99 151 -220 78 -121 146
-220 150 -220 4 0 18 11 30 24 l22 23 -143 219 c-79 121 -147 224 -151 231 -4
7 47 73 129 168 l136 156 -23 25 c-12 13 -25 24 -29 24 -3 0 -96 -104 -206
-231z"/>
<path d="M882 1473 l3 -428 33 -3 32 -3 0 210 0 211 210 0 210 0 2 -207 3
-208 35 0 35 0 3 428 2 427 -40 0 -40 0 0 -180 0 -180 -210 0 -210 0 0 180 0
180 -35 0 -35 0 2 -427z"/>
<path d="M1860 1897 c0 -2 -65 -191 -145 -420 -80 -230 -145 -422 -145 -427 0
-6 15 -10 34 -10 38 0 30 -15 101 183 l28 77 171 0 171 0 19 -52 c10 -29 32
-88 48 -130 29 -76 31 -78 64 -78 21 0 34 5 34 13 0 7 -69 200 -153 428 l-153
414 -37 3 c-20 2 -37 2 -37 -1z m114 -323 c36 -100 66 -184 66 -187 0 -4 -63
-7 -141 -7 -77 0 -139 4 -137 8 2 5 32 92 68 195 35 103 67 183 71 179 3 -4
36 -88 73 -188z"/>
<path d="M2350 1470 l0 -430 35 0 35 0 0 205 0 205 190 0 190 0 0 40 0 40
-190 0 -190 0 0 145 0 145 220 0 220 0 0 40 0 40 -255 0 -255 0 0 -430z"/>
<path d="M3000 1475 l0 -425 280 0 280 0 0 40 0 40 -245 0 -245 0 0 160 0 160
225 0 225 0 0 40 0 40 -225 0 -225 0 0 145 0 145 240 0 240 0 0 40 0 40 -275
0 -275 0 0 -425z"/>
<path d="M3710 1476 l0 -426 35 0 35 0 0 357 c0 196 3 353 8 349 4 -4 102
-163 217 -354 l211 -347 42 -3 42 -3 0 425 0 426 -35 0 -35 0 0 -357 c0 -217
-4 -353 -9 -347 -5 5 -104 164 -219 354 l-210 345 -41 3 -41 3 0 -425z"/>
<path d="M5192 1473 l3 -428 35 0 35 0 3 188 2 187 118 0 c114 0 120 -1 165
-30 62 -39 98 -98 142 -231 20 -60 40 -111 45 -114 11 -7 60 15 60 27 0 4 -18
61 -40 126 -39 113 -69 170 -114 221 -17 20 -18 25 -6 29 29 10 86 79 98 119
36 122 -6 249 -101 304 -40 23 -51 24 -245 27 l-202 3 2 -428z m414 321 c47
-35 67 -70 71 -126 5 -61 -16 -110 -60 -142 -25 -19 -45 -21 -188 -24 l-159
-4 0 162 0 161 154 -3 c138 -3 158 -5 182 -24z"/>
<path d="M6170 1897 c0 -2 -65 -191 -145 -420 -80 -230 -145 -422 -145 -427 0
-6 15 -10 34 -10 38 0 30 -15 101 183 l28 77 171 0 171 0 19 -52 c10 -29 32
-88 48 -130 29 -76 31 -78 64 -78 21 0 34 5 34 13 0 7 -69 200 -153 428 l-153
414 -37 3 c-20 2 -37 2 -37 -1z m114 -323 c36 -100 66 -184 66 -187 0 -4 -63
-7 -141 -7 -77 0 -139 4 -137 8 2 5 32 92 68 195 35 103 67 183 71 179 3 -4
36 -88 73 -188z"/>
<path d="M6660 1476 l0 -426 35 0 35 0 0 357 c0 196 3 353 8 349 4 -4 102
-163 217 -354 l211 -347 42 -3 42 -3 0 425 0 426 -35 0 -35 0 0 -357 c0 -217
-4 -353 -9 -347 -5 5 -104 164 -219 354 l-210 345 -41 3 -41 3 0 -425z"/>
</g>
</svg>
